<!-- <svg width="1400" height="737" viewBox="0 0 1400 737" fill="none" xmlns="http://www.w3.org/2000/svg">
<path d="M1300 77H0V737H1400V177C1400 121.772 1355.23 77 1300 77Z" fill="#0F264C"/>
<mask id="mask0" mask-type="alpha" maskUnits="userSpaceOnUse" x="0" y="77" width="1400" height="660">
<path d="M1300 77H0V737H1400V177C1400 121.772 1355.23 77 1300 77Z" fill="#0F264C"/>
</mask>
<g mask="url(#mask0)">
<path opacity="0.2" d="M-216 393.609C-166.999 329.887 -37.2115 205.63 89.9269 218.375C248.85 234.305 -53.1039 533 89.9269 533C232.958 533 300.5 166.601 403.8 166.601C507.1 166.601 288.581 437.418 403.8 453.348C519.019 469.278 614.373 71.0183 741.512 67.0357C868.65 63.0531 610.4 393.609 817 393.609" stroke="url(#paint0_linear)" stroke-width="2"/>
</g>
<path d="M517.072 73.9826C515.14 65.1337 511.951 56.7656 507.7 49.0708C507.12 48.0128 506.443 46.8586 505.767 45.8005C500.839 37.6248 494.752 30.3148 487.699 23.9666C486.829 23.1009 485.863 22.3314 484.897 21.562C477.36 15.31 468.76 10.2122 459.485 6.55715C458.325 6.07623 457.166 5.6915 456.006 5.30676C446.73 2.03648 436.682 0.208971 426.343 0.0166016C425.763 0.0166016 425.087 0.0166016 424.507 0.0166016C423.927 0.0166016 423.251 0.0166016 422.671 0.0166016C412.236 0.208971 402.284 2.03648 393.008 5.30676C391.848 5.6915 390.689 6.17241 389.529 6.55715C380.254 10.2122 371.654 15.31 364.118 21.562C363.151 22.3314 362.185 23.1971 361.316 23.9666C354.262 30.3148 348.078 37.6248 343.247 45.8005C342.571 46.8586 341.991 48.0128 341.315 49.0708C337.063 56.7656 333.875 65.1337 331.942 73.9826C331.652 75.233 331.459 76.4835 331.169 77.7339C330.203 83.1202 329.72 88.6027 329.72 94.1814H519.198C519.198 88.6027 518.715 83.024 517.748 77.7339C517.555 76.4835 517.362 75.233 517.072 73.9826Z" fill="#0F264C"/>
<path d="M190.325 92.6026C188.427 83.8615 185.297 75.5955 181.123 67.9946C180.554 66.9494 179.889 65.8093 179.225 64.7642C174.387 56.6882 168.411 49.4673 161.485 43.1965C160.632 42.3414 159.683 41.5813 158.734 40.8212C151.335 34.6454 142.892 29.6098 133.784 25.9994C132.646 25.5243 131.508 25.1443 130.369 24.7642C121.262 21.5338 111.396 19.7286 101.245 19.5386C100.676 19.5386 100.012 19.5386 99.4428 19.5386C98.8736 19.5386 98.2096 19.5386 97.6404 19.5386C87.3948 19.7286 77.6236 21.5338 68.5164 24.7642C67.378 25.1443 66.2396 25.6193 65.1012 25.9994C55.994 29.6098 47.5509 34.6454 40.1513 40.8212C39.2027 41.5813 38.254 42.4364 37.4002 43.1965C30.475 49.4673 24.4035 56.6882 19.6602 64.7642C18.9961 65.8093 18.4269 66.9494 17.7629 67.9946C13.5887 75.5955 10.4582 83.8615 8.56085 92.6026C8.27625 93.8378 8.0865 95.0729 7.8019 96.3081C6.85324 101.629 6.37891 107.044 6.37891 112.555H192.412C192.412 107.044 191.938 101.534 190.989 96.3081C190.799 95.0729 190.609 93.8378 190.325 92.6026Z" fill="#FCDDD4"/>
<defs>
<linearGradient id="paint0_linear" x1="300.5" y1="177.318" x2="300.5" y2="635.71" gradientUnits="userSpaceOnUse">
<stop stop-color="#F37753"/>
<stop offset="1" stop-color="white" stop-opacity="0"/>
</linearGradient>
</defs>
</svg>
 -->

<svg width="1400" height="660" viewBox="0 0 1400 660" fill="none" xmlns="http://www.w3.org/2000/svg">
<path d="M1300 0H0V660H1400V100C1400 44.7715 1355.23 0 1300 0Z" fill="#0F264C"/>
<mask id="mask0" mask-type="alpha" maskUnits="userSpaceOnUse" x="0" y="0" width="1400" height="660">
<path d="M1300 0H0V660H1400V100C1400 44.7715 1355.23 0 1300 0Z" fill="#0F264C"/>
</mask>
<g mask="url(#mask0)">
<path opacity="0.2" d="M-216 316.609C-166.999 252.887 -37.2115 128.63 89.9269 141.375C248.85 157.305 -53.1039 456 89.9269 456C232.958 456 300.5 89.6007 403.8 89.6007C507.1 89.6007 288.581 360.418 403.8 376.348C519.019 392.278 614.373 -5.9817 741.512 -9.9643C868.65 -13.9469 610.4 316.609 817 316.609" stroke="url(#paint0_linear)" stroke-width="2"/>
</g>
<defs>
<linearGradient id="paint0_linear" x1="300.5" y1="100.318" x2="300.5" y2="558.71" gradientUnits="userSpaceOnUse">
<stop stop-color="#F37753"/>
<stop offset="1" stop-color="white" stop-opacity="0"/>
</linearGradient>
</defs>
</svg>

