<svg width="186" height="94" viewBox="0 0 186 94" fill="none" xmlns="http://www.w3.org/2000/svg">
<path d="M183.325 73.6026C181.427 64.8615 178.297 56.5955 174.123 48.9946C173.554 47.9494 172.889 46.8093 172.225 45.7642C167.387 37.6882 161.411 30.4673 154.485 24.1965C153.632 23.3414 152.683 22.5813 151.734 21.8212C144.335 15.6454 135.892 10.6098 126.784 6.99936C125.646 6.5243 124.508 6.14427 123.369 5.76422C114.262 2.53382 104.396 0.728598 94.2453 0.538574C93.6761 0.538574 93.012 0.538574 92.4428 0.538574C91.8737 0.538574 91.2096 0.538574 90.6404 0.538574C80.3948 0.728598 70.6235 2.53382 61.5164 5.76422C60.378 6.14427 59.2396 6.61931 58.1012 6.99936C48.994 10.6098 40.5509 15.6454 33.1513 21.8212C32.2027 22.5813 31.254 23.4364 30.4002 24.1965C23.475 30.4673 17.4035 37.6882 12.6602 45.7642C11.9961 46.8093 11.4269 47.9494 10.7629 48.9946C6.58875 56.5955 3.45818 64.8615 1.56085 73.6026C1.27625 74.8378 1.0865 76.0729 0.801902 77.3081C-0.146762 82.6287 -0.621094 88.0444 -0.621094 93.5551H185.412C185.412 88.0444 184.938 82.5337 183.989 77.3081C183.799 76.0729 183.609 74.8378 183.325 73.6026Z" fill="#FCDDD4"/>
</svg>
